<svg width="27" height="30" viewBox="0 0 27 30" fill="none" xmlns="http://www.w3.org/2000/svg">
<g id="calendar-solid 1" clip-path="url(#clip0_3_1130)">
<path id="Vector" d="M5.78571 1.875V3.75H2.89286C1.29576 3.75 0 5.00977 0 6.5625V9.375H27V6.5625C27 5.00977 25.7042 3.75 24.1071 3.75H21.2143V1.875C21.2143 0.837891 20.3525 0 19.2857 0C18.219 0 17.3571 0.837891 17.3571 1.875V3.75H9.64286V1.875C9.64286 0.837891 8.78103 0 7.71429 0C6.64754 0 5.78571 0.837891 5.78571 1.875ZM27 11.25H0V27.1875C0 28.7402 1.29576 30 2.89286 30H24.1071C25.7042 30 27 28.7402 27 27.1875V11.25Z" fill="white"/>
</g>
<defs>
<clipPath id="clip0_3_1130">
<rect width="27" height="30" fill="white"/>
</clipPath>
</defs>
</svg>
