<svg width="21" height="28" viewBox="0 0 21 28" fill="none" xmlns="http://www.w3.org/2000/svg">
<g id="location-dot-solid 1" clip-path="url(#clip0_3_1132)">
<path id="Vector" d="M11.7961 27.3C14.6016 23.7891 21 15.2797 21 10.5C21 4.70312 16.2969 0 10.5 0C4.70312 0 0 4.70312 0 10.5C0 15.2797 6.39844 23.7891 9.20391 27.3C9.87656 28.1367 11.1234 28.1367 11.7961 27.3ZM10.5 7C11.4283 7 12.3185 7.36875 12.9749 8.02513C13.6313 8.6815 14 9.57174 14 10.5C14 11.4283 13.6313 12.3185 12.9749 12.9749C12.3185 13.6313 11.4283 14 10.5 14C9.57174 14 8.6815 13.6313 8.02513 12.9749C7.36875 12.3185 7 11.4283 7 10.5C7 9.57174 7.36875 8.6815 8.02513 8.02513C8.6815 7.36875 9.57174 7 10.5 7Z" fill="white"/>
</g>
<defs>
<clipPath id="clip0_3_1132">
<rect width="21" height="28" fill="white"/>
</clipPath>
</defs>
</svg>
